<?xml version="1.0" encoding="iso-8859-1"?>
<!-- Uploaded to: SVG Repo, www.svgrepo.com, Generator: SVG Repo Mixer Tools -->
<svg height="800px" width="800px" version="1.1" id="Layer_1" xmlns="http://www.w3.org/2000/svg" xmlns:xlink="http://www.w3.org/1999/xlink" 
	 viewBox="0 0 512 512" xml:space="preserve">
<polygon style="fill:#FF8227;" points="77.523,60.242 77.523,206.319 434.478,206.319 434.478,60.242 256,37.486 "/>
<path style="fill:#9E5439;" d="M503.467,157.521c-4.714,0-8.533,3.82-8.533,8.533v17.51H17.067v-17.51
	c0-4.714-3.821-8.533-8.533-8.533S0,161.34,0,166.054v17.51c0,141.385,114.615,256,256,256s256-114.615,256-256v-17.51
	C512,161.34,508.181,157.521,503.467,157.521z"/>
<path style="fill:#71A8FF;" d="M469.322,272.202c-9.623,13.073-25.164,21.625-42.642,21.625c-17.514,0-33.018-8.55-42.679-21.625
	c-9.661,13.073-25.165,21.625-42.678,21.625c-17.518,0-32.977-8.55-42.642-21.625c-9.661,13.073-25.165,21.625-42.679,21.625
	c-17.518,0-33.018-8.55-42.643-21.625c-9.702,13.073-25.164,21.625-42.678,21.625c-17.517,0-33.018-8.55-42.642-21.625
	c-9.66,13.073-25.206,21.625-42.72,21.625c-17.476,0-32.976-8.55-42.642-21.625C33.018,285.275,17.517,293.827,0,293.827v82.173
	l256.002,22.756L512,375.999v-82.173C494.486,293.827,478.983,285.276,469.322,272.202z"/>
<g>
	<path style="fill:#492D25;" d="M166.761,141.758c-4.713,0-8.533-3.82-8.533-8.533v-23.678c0-4.714,3.821-8.533,8.533-8.533
		c4.713,0,8.533,3.82,8.533,8.533v23.679C175.294,137.939,171.473,141.758,166.761,141.758z"/>
	<path style="fill:#492D25;" d="M256,141.758c-4.713,0-8.533-3.82-8.533-8.533v-23.678c0-4.714,3.821-8.533,8.533-8.533
		c4.714,0,8.533,3.82,8.533,8.533v23.679C264.533,137.939,260.714,141.758,256,141.758z"/>
	<path style="fill:#492D25;" d="M345.239,141.758c-4.714,0-8.533-3.82-8.533-8.533v-23.678c0-4.714,3.819-8.533,8.533-8.533
		c4.714,0,8.533,3.82,8.533,8.533v23.679C353.773,137.939,349.952,141.758,345.239,141.758z"/>
</g>
<polygon style="fill:#763F31;" points="394.141,0 117.859,0 65.268,61.276 446.733,61.276 "/>
<path style="fill:#4D8AEB;" d="M469.322,354.376C459.699,367.449,444.158,376,426.68,376c-17.514,0-33.018-8.55-42.679-21.625
	C374.34,367.449,358.836,376,341.323,376c-17.518,0-32.977-8.55-42.642-21.625C289.021,367.449,273.516,376,256.002,376
	c-17.518,0-33.018-8.55-42.643-21.625C203.658,367.449,188.195,376,170.681,376c-17.517,0-33.018-8.55-42.642-21.625
	C118.38,367.449,102.833,376,85.32,376c-17.476,0-32.976-8.55-42.642-21.625C33.018,367.449,17.517,376,0,376v82.173l256.002,22.756
	L512,458.173V376C494.486,375.999,478.983,367.449,469.322,354.376z"/>
<path style="fill:#71A8FF;" d="M469.322,436.548c-9.623,13.073-25.164,21.625-42.642,21.625c-17.514,0-33.018-8.55-42.679-21.625
	c-9.661,13.073-25.165,21.625-42.678,21.625c-17.518,0-32.977-8.55-42.642-21.625c-9.661,13.073-25.165,21.625-42.679,21.625
	c-17.518,0-33.018-8.55-42.643-21.625c-9.702,13.073-25.164,21.625-42.678,21.625c-17.517,0-33.018-8.55-42.642-21.625
	c-9.66,13.073-25.206,21.625-42.72,21.625c-17.476,0-32.976-8.55-42.642-21.625c-9.66,13.073-25.16,21.623-42.678,21.623V512h512
	v-53.828C494.486,458.172,478.983,449.621,469.322,436.548z"/>
</svg>